<mxfile host="app.diagrams.net" modified="2024-07-02T05:08:12.375Z" agent="Mozilla/5.0 (Windows NT 10.0; Win64; x64) AppleWebKit/537.36 (KHTML, like Gecko) Chrome/126.0.0.0 Safari/537.36 Edg/126.0.0.0" etag="qKriXGvkCdAxV0ZXPzQi" version="24.6.4" type="device">
  <diagram name="Page-1" id="PFmZhroK1dZheUzBBXK0">
    <mxGraphModel dx="1242" dy="779" grid="0" gridSize="10" guides="1" tooltips="1" connect="1" arrows="1" fold="1" page="0" pageScale="1" pageWidth="850" pageHeight="1100" math="0" shadow="0">
      <root>
        <mxCell id="0" />
        <mxCell id="1" parent="0" />
      </root>
    </mxGraphModel>
  </diagram>
</mxfile>
